<svg width="230" height="230" viewBox="0 0 230 230" fill="none" xmlns="http://www.w3.org/2000/svg">
<rect width="230" height="230" rx="115" fill="#FEB415" fill-opacity="0.85"/>
<g clip-path="url(#clip0_43_176)">
<path d="M158.483 175.394H69.1046V91.2621L77.7829 73.7426H158.483V175.394Z" fill="#EEEDED"/>
<path d="M69.1046 68.466H158.536V91.2621H69.1046V68.466Z" fill="#EE2E38"/>
<path d="M114.705 68.466L121.979 91.2621H158.483V68.466H114.705Z" fill="#B81E51"/>
<path fill-rule="evenodd" clip-rule="evenodd" d="M72.858 91.2621V169.269H146.324C153.198 169.269 158.775 163.308 158.802 155.942V91.3334L72.858 91.2621Z" fill="white"/>
<path d="M119.823 103.983C119.823 106.535 117.893 108.603 115.51 108.603C113.128 108.603 111.198 106.535 111.198 103.983C111.198 101.43 113.128 99.3622 115.51 99.3622C117.893 99.3622 119.823 101.43 119.823 103.983Z" fill="#C7CCCF"/>
<path fill-rule="evenodd" clip-rule="evenodd" d="M131.07 108.625C128.688 108.625 126.758 106.557 126.758 103.997C126.758 101.444 128.688 99.3765 131.07 99.3765C133.453 99.3765 135.383 101.444 135.383 103.997C135.383 106.557 133.453 108.625 131.07 108.625Z" fill="#C7CCCF"/>
<path fill-rule="evenodd" clip-rule="evenodd" d="M84.3848 125.659C82.0022 125.659 80.0723 123.592 80.0723 121.032C80.0723 118.479 82.0022 116.411 84.3848 116.411C86.7673 116.411 88.6973 118.479 88.6973 121.032C88.6906 123.584 86.7673 125.652 84.3848 125.659Z" fill="#EEEDED"/>
<path fill-rule="evenodd" clip-rule="evenodd" d="M99.9443 125.659C97.5618 125.659 95.6318 123.592 95.6318 121.032C95.6318 118.479 97.5618 116.411 99.9443 116.411C102.327 116.411 104.257 118.479 104.257 121.032C104.25 123.584 102.327 125.652 99.9443 125.659Z" fill="#C7CCCF"/>
<path fill-rule="evenodd" clip-rule="evenodd" d="M115.51 125.659C113.128 125.659 111.198 123.592 111.198 121.032C111.198 118.479 113.128 116.411 115.51 116.411C117.893 116.411 119.823 118.479 119.823 121.032C119.823 123.584 117.893 125.652 115.51 125.659Z" fill="#EEEDED"/>
<path fill-rule="evenodd" clip-rule="evenodd" d="M131.596 125.659C129.213 125.659 127.283 123.592 127.283 121.032C127.283 118.479 129.213 116.411 131.596 116.411C133.978 116.411 135.908 118.479 135.908 121.032C135.908 123.584 133.978 125.652 131.596 125.659Z" fill="#EE2E38"/>
<path fill-rule="evenodd" clip-rule="evenodd" d="M99.9443 142.708C97.5551 142.715 95.6118 140.64 95.6118 138.088C95.6118 135.528 97.5418 133.446 99.931 133.446C102.32 133.446 104.257 135.521 104.257 138.081C104.257 140.633 102.327 142.708 99.9443 142.708Z" fill="#C7CCCF"/>
<path fill-rule="evenodd" clip-rule="evenodd" d="M131.07 142.708C129.32 142.715 127.743 141.589 127.07 139.856C126.398 138.123 126.764 136.127 128.002 134.801C129.24 133.474 131.103 133.082 132.721 133.802C134.338 134.523 135.389 136.212 135.383 138.088C135.383 140.64 133.453 142.708 131.07 142.708Z" fill="#EEEDED"/>
<path fill-rule="evenodd" clip-rule="evenodd" d="M115.724 142.708C113.973 142.715 112.396 141.589 111.724 139.856C111.052 138.123 111.418 136.127 112.656 134.801C113.893 133.474 115.757 133.082 117.374 133.802C118.991 134.523 120.043 136.212 120.036 138.088C120.036 140.64 118.106 142.708 115.724 142.708Z" fill="#C7CCCF"/>
<path fill-rule="evenodd" clip-rule="evenodd" d="M99.9243 107.969C97.5418 107.969 95.6118 105.901 95.6118 103.348C95.6118 100.795 97.5418 98.7205 99.9243 98.7205C102.307 98.7205 104.243 100.795 104.243 103.348C104.237 105.894 102.307 107.962 99.9243 107.969Z" fill="#C7CCCF"/>
<path fill-rule="evenodd" clip-rule="evenodd" d="M147.149 108.454C144.76 108.454 142.816 106.386 142.816 103.826C142.81 101.266 144.746 99.1912 147.136 99.184C149.525 99.184 151.461 101.259 151.461 103.819C151.461 106.372 149.531 108.446 147.149 108.454Z" fill="#EEEDED"/>
<path fill-rule="evenodd" clip-rule="evenodd" d="M146.883 126.123C144.5 126.123 142.57 124.055 142.57 121.502C142.57 118.95 144.5 116.875 146.883 116.875C149.265 116.875 151.202 118.95 151.202 121.502C151.195 124.048 149.265 126.116 146.883 126.123Z" fill="#EEEDED"/>
<path fill-rule="evenodd" clip-rule="evenodd" d="M146.856 142.865C144.474 142.865 142.544 140.797 142.544 138.245C142.544 135.692 144.474 133.617 146.856 133.617C149.239 133.617 151.175 135.692 151.175 138.245C151.169 140.79 149.239 142.858 146.856 142.865Z" fill="#C7CCCF"/>
<path d="M86.714 80.0031C86.0485 80.0102 85.4162 79.725 84.9504 79.2259C84.4845 78.7267 84.2183 78.0493 84.225 77.3363V71.6034C84.2716 65.9204 88.1648 61.1145 93.409 60.2588L96.9096 59.5743C97.6416 59.4246 98.4003 59.6314 98.9727 60.1447C99.545 60.651 99.8778 61.414 99.8644 62.2126V68.4589H94.8731V65.3928L94.3008 65.4997C91.2062 66.1058 89.2096 68.5016 89.2096 71.6034V74.042L89.4692 74.6196C89.8818 75.5394 89.935 76.6018 89.6223 77.5716C89.3028 78.5342 88.6373 79.3257 87.7721 79.7678C87.4394 79.9246 87.0734 80.0031 86.714 80.0031Z" fill="#110F33"/>
<path d="M138.085 80.0031C137.426 80.0102 136.794 79.725 136.321 79.2258C135.855 78.7267 135.596 78.0493 135.596 77.3363V71.6034C135.649 65.9133 139.542 61.1073 144.793 60.2588L148.28 59.5743C149.006 59.4246 149.764 59.6385 150.337 60.1447C150.909 60.6581 151.235 61.4139 151.222 62.2126V68.4588H146.251V65.3927L145.685 65.4997C142.584 66.1058 140.594 68.5016 140.594 71.6034V74.042L140.853 74.6053C141.266 75.5323 141.319 76.5947 141 77.5644C140.68 78.527 140.021 79.3185 139.156 79.7606C138.817 79.9246 138.457 80.0102 138.085 80.0031Z" fill="#110F33"/>
<path d="M72.8781 154.994H158.483V169.398H72.8781V154.994Z" fill="#C7CCCF"/>
<path fill-rule="evenodd" clip-rule="evenodd" d="M164.472 167.772L167.673 175.323L174.794 171.18C170.834 162.994 169.563 156.955 169.563 141.239V68.466H158.469V175.394H164.412L164.472 167.772Z" fill="#110F33"/>
<path d="M72.9113 126.479L63.5143 133.795L92.2842 176.214L106.659 186.824L101.681 168.898L72.9113 126.479Z" fill="#110F33"/>
<path d="M57.5314 103.79C55.5881 101.23 52.1141 100.738 49.6185 102.671C47.1228 104.603 46.464 108.29 48.1277 111.07L61.9038 131.421L71.2475 124.055L57.5314 103.79Z" fill="#110F33"/>
<path d="M72.8846 126.43L64.8386 132.761L72.9112 126.479L72.8846 126.43Z" fill="#110F33"/>
<path d="M61.7174 131.064L71.0811 123.684L72.9512 126.401L63.5875 133.788L61.7174 131.064Z" fill="#322C75"/>
</g>
<defs>
<clipPath id="clip0_43_176">
<rect width="127.778" height="127.778" fill="white" transform="translate(47.0229 59.2891)"/>
</clipPath>
</defs>
</svg>
