<svg width="230" height="230" viewBox="0 0 230 230" fill="none" xmlns="http://www.w3.org/2000/svg">
<rect width="230" height="230" rx="115" fill="#FEB415" fill-opacity="0.85"/>
<g clip-path="url(#clip0_43_211)">
<path d="M144.273 60.0143C144.273 55.0304 138.696 51.0447 131.828 51.0447C124.959 51.0447 119.382 55.0751 119.382 60.0143C119.382 60.0814 119.382 60.1559 119.382 60.2229C119.382 60.3049 119.382 60.3868 119.382 60.4688L119.429 110.003C119.429 114.488 125.272 118.324 131.828 118.324C138.696 118.324 144.273 114.287 144.273 109.347V60.4688C144.273 60.3943 144.273 60.3123 144.273 60.2378C144.273 60.1708 144.273 60.0888 144.273 60.0143Z" fill="#C7CCCF"/>
<path d="M144.273 60.0143C144.273 55.0304 138.696 51.0447 131.828 51.0447V118.324C138.696 118.324 144.273 114.287 144.273 109.347V60.4688C144.273 60.3943 144.273 60.3123 144.273 60.2378C144.273 60.1708 144.273 60.0888 144.273 60.0143Z" fill="#110F33"/>
<path d="M144.273 60.0143C144.273 55.0378 138.702 51 131.828 51C124.953 51 119.382 55.0378 119.382 60.0143C119.382 64.9908 124.953 69.0287 131.828 69.0287C138.702 69.0287 144.273 64.9908 144.273 60.0143Z" fill="#C7CCCF"/>
<path d="M178.767 74.1095C178.767 69.1181 173.19 65.1398 166.321 65.1398C159.453 65.1398 153.896 69.1404 153.896 74.1095C153.896 74.1691 153.896 74.2436 153.896 74.3106C153.896 74.3851 153.896 74.4745 153.896 74.5639L153.943 124.098C153.943 128.583 159.786 132.412 166.328 132.412C173.21 132.412 178.773 128.374 178.773 123.398V74.5639C178.78 74.4894 178.78 74.4075 178.773 74.333C178.773 74.2585 178.773 74.184 178.767 74.1095Z" fill="#C7CCCF"/>
<path d="M178.767 74.1095C178.767 69.1181 173.19 65.1398 166.321 65.1398V132.457C173.203 132.457 178.767 128.419 178.767 123.442V74.5639C178.767 74.4894 178.767 74.4075 178.767 74.333C178.767 74.2585 178.767 74.184 178.767 74.1095Z" fill="#110F33"/>
<path d="M178.773 74.1095C178.773 69.1255 173.203 65.0952 166.328 65.0952C159.46 65.0952 153.89 69.1255 153.89 74.1095C153.89 79.086 159.46 83.1238 166.328 83.1238C173.203 83.1238 178.773 79.086 178.773 74.1095Z" fill="#C7CCCF"/>
<path d="M66.0474 137.24H145.224C155.387 137.24 163.453 136.502 166.321 129.022V80.7175H164.671C160.964 85.4556 153.85 85.9845 145.224 85.9845H66.0474V137.24Z" fill="#A7DDE2"/>
<path d="M166.321 136.413V129.022C163.453 136.502 155.387 137.24 145.224 137.24H66.0474V147.573L73.5146 149.368L66.0474 150.769V155.425H166.355V139.825H162.901C164.358 139.169 165.569 137.962 166.321 136.413Z" fill="#110F33"/>
<path d="M128.66 144.585L157.031 149.852L161.37 144.585H128.66Z" fill="#87D3E0"/>
<path d="M110.577 127.443H113.765L114.304 125.379C117.885 124.463 120.62 121.207 121.252 117.14C121.698 113.974 119.948 111.612 118.683 109.958C117.718 108.669 116.913 107.53 117.093 106.166C117.286 104.43 118.564 103.112 120.114 103.037C120.98 103 121.845 103.171 122.65 103.536C122.836 103.633 123.056 103.633 123.242 103.544C123.435 103.447 123.575 103.268 123.642 103.045C123.642 102.97 124.56 99.521 124.56 99.521C123.522 99.0069 122.41 98.7089 121.279 98.6195L121.811 96.9433H118.63L117.991 99.1932C114.89 100.288 112.561 103.201 111.935 106.792C111.489 109.928 113.259 112.178 114.531 113.847C115.522 115.128 116.334 116.268 116.121 117.714C115.922 119.591 114.504 121.006 112.827 121.006C111.782 121.081 110.737 120.872 109.772 120.403C109.586 120.276 109.36 120.254 109.16 120.351C108.96 120.448 108.814 120.649 108.767 120.887L107.762 124.731C108.814 125.201 109.919 125.499 111.05 125.633L110.577 127.443Z" fill="#87D3E0"/>
<path d="M162.654 126.393V88.0854C162.654 88.0854 158.901 90.3948 145.018 90.3948H70.0605V133.425H144.892C161.057 133.425 162.541 127.741 162.674 126.556L162.654 126.393ZM91.5835 131.779C88.8881 128.613 78.679 128.262 78.679 128.262C78.679 121.632 74.0137 119.621 71.5114 119.017V104.795C73.9738 104.192 78.679 102.181 78.679 95.5576C78.679 95.5576 88.8083 95.2075 91.5436 92.086H108.86C101.759 95.416 97.1206 103.231 97.1007 111.903C97.0873 120.574 101.686 128.411 108.774 131.786L91.5835 131.779ZM116.181 92.4585C125.745 92.4585 133.498 101.182 133.498 111.955C133.498 122.727 125.751 131.466 116.188 131.466C106.631 131.458 98.8776 122.727 98.8843 111.955C98.8976 101.19 106.638 92.4734 116.181 92.4585ZM135.288 111.962C135.288 103.261 130.636 95.416 123.509 92.086H141.158C143.893 95.2075 154.023 95.5576 154.023 95.5576C154.023 102.181 158.688 104.192 161.19 104.795V119.032C158.721 119.628 154.023 121.64 154.023 128.27C154.023 128.27 143.814 128.62 141.125 131.786H123.608C130.683 128.411 135.275 120.604 135.275 111.955L135.288 111.962Z" fill="#87D3E0"/>
<path d="M88.1028 116.171C90.3988 116.171 92.2556 114.078 92.2556 111.493C92.2556 108.915 90.3988 106.822 88.1028 106.822C85.8134 106.822 83.9566 108.915 83.9566 111.493C83.9566 112.737 84.3892 113.921 85.1679 114.801C85.9465 115.68 87.0047 116.171 88.1028 116.171Z" fill="#87D3E0"/>
<path d="M144.273 116.171C146.562 116.171 148.419 114.078 148.419 111.493C148.419 108.915 146.562 106.822 144.273 106.822C141.977 106.822 140.12 108.915 140.12 111.493C140.12 112.737 140.559 113.921 141.338 114.801C142.116 115.68 143.168 116.171 144.273 116.171Z" fill="#87D3E0"/>
<path d="M80.6823 119.703H95.2572V122.638H80.6823V119.703Z" fill="#87D3E0"/>
<path d="M70.0472 74.6533L74.3797 72.5375L70.1603 70.6602L68.0573 65.1622L66.0607 70.6602L61.9611 72.5375L66.3935 74.6533L68.2836 79.6596L70.0472 74.6533Z" fill="#110F33"/>
<path d="M57.2825 92.0711L60.6234 90.4768L57.3823 88.9943L55.7651 84.6659L54.2477 88.9943L51.0067 90.4768L54.4474 92.0711L55.865 95.9599L57.2825 92.0711Z" fill="#110F33"/>
<path d="M107.769 151.245C107.769 146.261 102.199 142.268 95.3237 142.268C88.4555 142.268 82.8918 146.306 82.8918 151.245C82.8918 151.312 82.8918 151.387 82.8918 151.446C82.8918 151.514 82.8918 151.618 82.8918 151.707L82.9384 170.459C82.9384 174.943 88.7816 178.773 95.3237 178.773C102.205 178.773 107.769 174.742 107.769 169.803V151.707C107.776 151.625 107.776 151.543 107.769 151.469C107.776 151.394 107.776 151.32 107.769 151.245Z" fill="#C7CCCF"/>
<path d="M107.769 151.245C107.769 146.261 102.198 142.268 95.3237 142.268V178.817C102.205 178.817 107.769 174.787 107.769 169.848V151.707C107.776 151.625 107.776 151.543 107.769 151.469C107.776 151.394 107.776 151.32 107.769 151.245Z" fill="#110F33"/>
<path d="M107.776 151.253C107.776 146.269 102.205 142.238 95.337 142.238C88.4622 142.238 82.8918 146.269 82.8918 151.253C82.8918 156.229 88.4622 160.267 95.337 160.267C102.205 160.267 107.776 156.229 107.776 151.253Z" fill="#C7CCCF"/>
</g>
<defs>
<clipPath id="clip0_43_211">
<rect width="127.78" height="127.78" fill="white" transform="translate(51 51)"/>
</clipPath>
</defs>
</svg>
